<svg width="40" height="40" viewBox="0 0 40 40" fill="none" xmlns="http://www.w3.org/2000/svg">
<path fill-rule="evenodd" clip-rule="evenodd" d="M3.33383 17.332H36.666C36.6587 13.277 36.5592 11.1535 35.2021 9.7965C33.7377 8.33203 31.3806 8.33203 26.6666 8.33203H13.3333C8.61921 8.33203 6.26218 8.33203 4.79772 9.7965C3.44069 11.1535 3.34113 13.277 3.33383 17.332ZM36.6666 19.332H3.33325V23.332C3.33325 28.0461 3.33325 30.4031 4.79772 31.8676C6.26218 33.332 8.61921 33.332 13.3333 33.332H26.6666C31.3806 33.332 33.7377 33.332 35.2021 31.8676C36.6666 30.4031 36.6666 28.0461 36.6666 23.332V19.332ZM11.6666 25.6654C11.1143 25.6654 10.6666 26.1131 10.6666 26.6654C10.6666 27.2176 11.1143 27.6654 11.6666 27.6654H11.6833C12.2355 27.6654 12.6833 27.2176 12.6833 26.6654C12.6833 26.1131 12.2355 25.6654 11.6833 25.6654H11.6666Z" fill="#E9E9E9"/>
</svg>
