<svg width="40" height="41" viewBox="0 0 40 41" fill="none" xmlns="http://www.w3.org/2000/svg">
<path d="M30 5.12501V5.12501C31.8692 5.12501 32.8038 5.12501 33.5 5.52693C33.9561 5.79024 34.3348 6.16896 34.5981 6.62501C35 7.32117 35 8.25578 35 10.125L35 14.375C35 14.8464 35 15.0821 34.8536 15.2286C34.7071 15.375 34.4714 15.375 34 15.375L25 15.375M30 5.12501V5.12501C28.1308 5.12501 27.1962 5.12501 26.5 5.52694C26.0439 5.79024 25.6652 6.16896 25.4019 6.62501C25 7.32117 25 8.25578 25 10.125L25 15.375M30 5.12501L9 5.12501C7.11438 5.12501 6.17157 5.12501 5.58579 5.7108C5 6.29659 5 7.23939 5 9.12501L5 35.875L10 34.1667L15 35.875L20 34.1667L25 35.875L25 15.375" stroke="#E9E9E9" stroke-width="2"/>
<path d="M11.6667 11.957L18.3334 11.957" stroke="#E9E9E9" stroke-width="2" stroke-linecap="round"/>
<path d="M13.3333 18.793H11.6666" stroke="#E9E9E9" stroke-width="2" stroke-linecap="round"/>
<path d="M11.6667 25.625L16.6667 25.625" stroke="#E9E9E9" stroke-width="2" stroke-linecap="round"/>
</svg>
