<svg width="40" height="40" viewBox="0 0 40 40" fill="none" xmlns="http://www.w3.org/2000/svg">
<path fill-rule="evenodd" clip-rule="evenodd" d="M27.8281 5L26.6666 5L7.33326 5C5.44764 5 4.50482 5 3.91904 5.58579C3.33325 6.17157 3.33325 7.11438 3.33325 9V35L8.33325 33.3333L13.3333 35L18.3333 33.3333L23.1686 34.9451L23.3333 18.3333L23.3333 9.5C23.3333 7.01643 25.3452 5.00276 27.8281 5ZM36.3333 18.3333V9.5C36.3333 8.11929 35.214 7 33.8333 7H27.8333C26.4525 7 25.3333 8.11929 25.3333 9.5V18.3333L36.3333 18.3333ZM7.33325 11.6667C7.33325 11.1144 7.78097 10.6667 8.33325 10.6667H18.3333C18.8855 10.6667 19.3333 11.1144 19.3333 11.6667C19.3333 12.219 18.8855 12.6667 18.3333 12.6667H8.33325C7.78097 12.6667 7.33325 12.219 7.33325 11.6667ZM7.33325 18.3333C7.33325 17.781 7.78097 17.3333 8.33325 17.3333H11.6666C12.2189 17.3333 12.6666 17.781 12.6666 18.3333C12.6666 18.8856 12.2189 19.3333 11.6666 19.3333H8.33325C7.78097 19.3333 7.33325 18.8856 7.33325 18.3333ZM7.33325 25C7.33325 24.4477 7.78097 24 8.33325 24H14.9999C15.5522 24 15.9999 24.4477 15.9999 25C15.9999 25.5523 15.5522 26 14.9999 26H8.33325C7.78097 26 7.33325 25.5523 7.33325 25Z" fill="#E9E9E9"/>
</svg>
