<svg width="40" height="40" viewBox="0 0 40 40" fill="none" xmlns="http://www.w3.org/2000/svg">
<path fill-rule="evenodd" clip-rule="evenodd" d="M8.79069 16.875C8.33325 17.8696 8.33325 19.001 8.33325 21.264V28.3313C8.33325 31.474 8.33325 33.0453 9.30956 34.0216C10.2685 34.9805 11.8014 34.9976 14.8333 34.9979V26.6647C14.8333 25.192 16.0272 23.998 17.4999 23.998H22.4999C23.9727 23.998 25.1666 25.192 25.1666 26.6647V34.9979C28.1985 34.9976 29.7314 34.9805 30.6903 34.0216C31.6666 33.0453 31.6666 31.474 31.6666 28.3313V21.264C31.6666 19.001 31.6666 17.8696 31.2092 16.875C30.7517 15.8804 29.8926 15.1441 28.1745 13.6714L26.5078 12.2428C23.4023 9.58094 21.8495 8.25 19.9999 8.25C18.1503 8.25 16.5975 9.58094 13.492 12.2428L11.8253 13.6714C10.1072 15.1441 9.24812 15.8804 8.79069 16.875ZM23.1666 34.9979V26.6647C23.1666 26.2965 22.8681 25.998 22.4999 25.998H17.4999C17.1317 25.998 16.8333 26.2965 16.8333 26.6647V34.9979H23.1666Z" fill="#E9E9E9"/>
</svg>
