<svg width="40" height="40" viewBox="0 0 40 40" fill="none" xmlns="http://www.w3.org/2000/svg">
<path fill-rule="evenodd" clip-rule="evenodd" d="M20.3965 29.8079C22.4379 28.7876 31.6666 23.694 31.6666 14.9987C31.6666 8.55538 26.4432 3.33203 19.9999 3.33203C13.5566 3.33203 8.33325 8.55538 8.33325 14.9987C8.33325 23.694 17.5619 28.7876 19.6033 29.8079C19.8581 29.9353 20.1417 29.9353 20.3965 29.8079ZM19.9999 19.9987C22.7613 19.9987 24.9999 17.7601 24.9999 14.9987C24.9999 12.2373 22.7613 9.9987 19.9999 9.9987C17.2385 9.9987 14.9999 12.2373 14.9999 14.9987C14.9999 17.7601 17.2385 19.9987 19.9999 19.9987Z" fill="#E9E9E9"/>
<path d="M30.1035 27.5C31.1275 28.2601 31.6666 29.1223 31.6666 30C31.6666 30.8777 31.1275 31.7399 30.1035 32.5C29.0796 33.2601 27.6068 33.8913 25.8333 34.3301C24.0597 34.769 22.0478 35 19.9999 35C17.952 35 15.9401 34.769 14.1666 34.3301C12.393 33.8913 10.9203 33.2601 9.89629 32.5C8.87233 31.7399 8.33325 30.8777 8.33325 30C8.33325 29.1223 8.87232 28.2601 9.89629 27.5" stroke="#E9E9E9" stroke-width="2" stroke-linecap="round"/>
</svg>