<svg width="40" height="41" viewBox="0 0 40 41" fill="none" xmlns="http://www.w3.org/2000/svg">
<path d="M23.5094 5.22377L24.5047 5.12667V5.12667L23.5094 5.22377ZM23.6591 6.75819L24.6544 6.66109V6.66109L23.6591 6.75819ZM26.9348 8.09643L27.5774 8.86265L27.5774 8.86265L26.9348 8.09643ZM28.0066 7.1976L28.6492 7.96382L28.0066 7.1976ZM29.4098 6.36908L29.3598 7.36783L29.4098 6.36908ZM30.7233 7.33339L31.4391 6.63507L30.7233 7.33339ZM32.9087 9.57342L32.1929 10.2717L32.2205 10.3L32.2502 10.326L32.9087 9.57342ZM32.9087 9.57343L33.6245 8.8751L33.5969 8.84685L33.5672 8.82085L32.9087 9.57343ZM33.8083 10.8541L34.8071 10.8044V10.8044L33.8083 10.8541ZM33.0402 12.2178L33.8218 12.8416H33.8218L33.0402 12.2178ZM32.0093 13.5093L31.2278 12.8855L32.0093 13.5093ZM30.7259 15.9521L29.8039 16.3392L29.8039 16.3392L30.7259 15.9521ZM33.3685 16.7466L33.2665 17.7414H33.2665L33.3685 16.7466ZM34.8705 16.9005L34.9725 15.9058L34.8705 16.9005ZM34.8705 24.1021L34.9725 25.0969H34.9725L34.8705 24.1021ZM33.3691 24.256L33.471 25.2507L33.3691 24.256ZM30.7265 25.0504L31.6485 25.4376L31.6485 25.4376L30.7265 25.0504ZM32.0099 27.4932L31.2284 28.1171L32.0099 27.4932ZM33.0403 28.7841L33.8219 28.1602L33.8219 28.1602L33.0403 28.7841ZM33.8084 30.1477L32.8096 30.0981L33.8084 30.1477ZM32.9088 31.4284L33.6246 32.1268L32.9088 31.4284ZM30.7234 33.6685L30.0076 32.9701L30.7234 33.6685ZM28.0067 33.8042L28.6493 33.038L28.0067 33.8042ZM26.9349 32.9054L27.5775 32.1392H27.5775L26.9349 32.9054ZM24.4605 31.5268L24.0823 30.6011L24.0823 30.6011L24.4605 31.5268ZM23.6592 34.2436L22.6639 34.1465L22.6592 34.195V34.2436H23.6592ZM23.6592 34.2437L24.6545 34.3408L24.6592 34.2923V34.2437H23.6592ZM23.5094 35.7788L24.5047 35.8759H24.5047L23.5094 35.7788ZM16.9019 37.3253L17.5738 36.5846L17.5738 36.5846L16.9019 37.3253ZM16.4904 35.7788L15.4951 35.8759L16.4904 35.7788ZM16.3407 34.2443L17.336 34.1472L16.3407 34.2443ZM15.5394 31.5275L15.9176 30.6018H15.9176L15.5394 31.5275ZM13.065 32.9061L12.4224 32.1399L13.065 32.9061ZM11.9931 33.805L12.6357 34.5712L11.9931 33.805ZM10.5899 34.6335L10.6398 33.6348L10.5899 34.6335ZM9.27637 33.6692L8.56059 34.3675L8.56059 34.3676L9.27637 33.6692ZM7.09099 31.4292L6.31487 32.0598L6.3435 32.095L6.3752 32.1275L7.09099 31.4292ZM7.09098 31.4292L7.86709 30.7986L7.83846 30.7634L7.80676 30.7309L7.09098 31.4292ZM6.19137 30.1485L7.19013 30.0988L7.19013 30.0988L6.19137 30.1485ZM6.95946 28.7849L7.741 29.4087L6.95946 28.7849ZM7.99043 27.4933L8.77197 28.1171H8.77197L7.99043 27.4933ZM9.27384 25.0505L8.35181 25.4376L8.35181 25.4376L9.27384 25.0505ZM6.63127 24.256L6.5293 25.2508H6.5293L6.63127 24.256ZM5.12932 24.1021L5.02735 25.0969H5.02735L5.12932 24.1021ZM5.12932 16.9005L5.02735 15.9057H5.02735L5.12932 16.9005ZM6.63189 16.7465L6.73386 17.7413H6.73386L6.63189 16.7465ZM9.27447 15.952L8.35243 15.5649L8.35243 15.5649L9.27447 15.952ZM7.99105 13.5092L8.7726 12.8854L7.99105 13.5092ZM6.95954 12.217L6.17799 12.8408L6.95954 12.217ZM6.19144 10.8533L5.19268 10.8037V10.8037L6.19144 10.8533ZM7.09106 9.57264L6.37528 8.87432L6.37528 8.87432L7.09106 9.57264ZM9.27645 7.33262L8.56067 6.6343H8.56067L9.27645 7.33262ZM10.59 6.36831L10.6399 7.36706H10.6399L10.59 6.36831ZM11.9932 7.19683L12.6357 6.43061L11.9932 7.19683ZM13.0651 8.09576L13.7076 7.32954V7.32954L13.0651 8.09576ZM15.5395 9.47435L15.9177 10.4001L15.9177 10.4001L15.5395 9.47435ZM16.3408 6.75752L15.3455 6.66042V6.66042L16.3408 6.75752ZM16.4904 5.22377L17.4857 5.32087V5.32087L16.4904 5.22377ZM16.9019 3.67733L17.5738 4.41797L17.5738 4.41797L16.9019 3.67733ZM24.5047 5.12667C24.4654 4.72429 24.4286 4.32676 24.3542 4.00238C24.2734 3.65015 24.1226 3.25668 23.7699 2.93669L22.4261 4.41797C22.3592 4.35733 22.3723 4.30806 22.4048 4.4497C22.4437 4.61918 22.4697 4.8652 22.5142 5.32087L24.5047 5.12667ZM24.6544 6.66109L24.5047 5.12667L22.5142 5.32087L22.6639 6.85529L24.6544 6.66109ZM24.8386 8.54929C25.016 8.62176 24.9698 8.76681 24.8815 8.41179C24.7933 8.05736 24.7386 7.52448 24.6544 6.66109L22.6639 6.85529C22.7415 7.65101 22.8082 8.36246 22.9406 8.89462C23.0729 9.4262 23.3463 10.1001 24.0822 10.4007L24.8386 8.54929ZM26.2923 7.33021C25.6276 7.88764 25.2154 8.22982 24.9043 8.42112C24.5927 8.61274 24.6612 8.47681 24.8386 8.54929L24.0822 10.4007C24.8181 10.7014 25.4852 10.4117 25.9519 10.1248C26.419 9.83759 26.9648 9.37639 27.5774 8.86265L26.2923 7.33021ZM27.364 6.43138L26.2923 7.33021L27.5774 8.86265L28.6492 7.96382L27.364 6.43138ZM29.4597 5.37033C28.9757 5.34613 28.5853 5.52358 28.2759 5.72114C27.9907 5.90324 27.6803 6.16611 27.364 6.43139L28.6492 7.96382C29.0071 7.66369 29.2024 7.5025 29.3522 7.4068C29.4779 7.32655 29.452 7.37244 29.3598 7.36783L29.4597 5.37033ZM31.4391 6.63507C31.1508 6.33957 30.8682 6.04707 30.6026 5.83744C30.3145 5.61001 29.9437 5.39452 29.4597 5.37033L29.3598 7.36783C29.2677 7.36323 29.2465 7.31499 29.3635 7.40736C29.5031 7.51754 29.6814 7.6974 30.0075 8.03172L31.4391 6.63507ZM33.6245 8.87509L31.4391 6.63507L30.0075 8.03172L32.1929 10.2717L33.6245 8.87509ZM33.5672 8.82085L33.5672 8.82084L32.2502 10.326L32.2502 10.326L33.5672 8.82085ZM34.8071 10.8044C34.7839 10.3388 34.5835 9.97849 34.37 9.69553C34.1736 9.43519 33.8997 9.15719 33.6245 8.8751L32.1929 10.2717C32.5049 10.5916 32.6715 10.765 32.7734 10.9C32.8582 11.0125 32.8139 10.9915 32.8096 10.9038L34.8071 10.8044ZM33.8218 12.8416C34.0676 12.5336 34.3126 12.2298 34.4822 11.9513C34.6665 11.6485 34.8303 11.27 34.8071 10.8044L32.8096 10.9038C32.8052 10.816 32.8472 10.7908 32.7739 10.9111C32.6859 11.0556 32.5374 11.2447 32.2587 11.5939L33.8218 12.8416ZM32.7908 14.1332L33.8218 12.8416L32.2587 11.5939L31.2278 12.8855L32.7908 14.1332ZM31.6479 15.565C31.7195 15.7354 31.592 15.8041 31.7676 15.5021C31.945 15.1971 32.2653 14.7916 32.7908 14.1332L31.2278 12.8855C30.7445 13.4908 30.3083 14.0331 30.0387 14.4968C29.7674 14.9634 29.5026 15.6216 29.8039 16.3392L31.6479 15.565ZM33.4704 15.7518C32.6324 15.6659 32.1186 15.6105 31.7767 15.5236C31.4381 15.4374 31.5763 15.3945 31.6479 15.565L29.8039 16.3392C30.1051 17.0568 30.7604 17.3287 31.2835 17.4618C31.8034 17.5941 32.496 17.6624 33.2665 17.7414L33.4704 15.7518ZM34.9725 15.9058L33.4704 15.7518L33.2665 17.7414L34.7685 17.8953L34.9725 15.9058ZM37.1511 16.6472C36.8332 16.295 36.442 16.1432 36.0914 16.061C35.7685 15.9854 35.3728 15.9468 34.9725 15.9058L34.7685 17.8953C35.222 17.9418 35.4666 17.9688 35.6351 18.0083C35.7757 18.0413 35.7268 18.054 35.6666 17.9874L37.1511 16.6472ZM37.6666 18.8901C37.6666 18.4877 37.6685 18.0901 37.6262 17.7612C37.5802 17.4041 37.469 16.9994 37.1511 16.6472L35.6666 17.9874C35.6064 17.9207 35.6241 17.8733 35.6426 18.0166C35.6646 18.1882 35.6666 18.4343 35.6666 18.8901H37.6666ZM37.6666 22.1125V18.8901H35.6666V22.1125H37.6666ZM37.1511 24.3554C37.469 24.0033 37.5802 23.5985 37.6262 23.2414C37.6685 22.9125 37.6666 22.5149 37.6666 22.1125H35.6666C35.6666 22.5683 35.6646 22.8144 35.6426 22.986C35.6241 23.1293 35.6064 23.0819 35.6666 23.0152L37.1511 24.3554ZM34.9725 25.0969C35.3728 25.0558 35.7685 25.0172 36.0914 24.9416C36.442 24.8594 36.8332 24.7076 37.1511 24.3554L35.6666 23.0152C35.7268 22.9486 35.7757 22.9613 35.6351 22.9943C35.4666 23.0338 35.222 23.0608 34.7685 23.1073L34.9725 25.0969ZM33.471 25.2507L34.9725 25.0969L34.7686 23.1073L33.2671 23.2612L33.471 25.2507ZM31.6485 25.4376C31.577 25.608 31.4387 25.5651 31.7773 25.479C32.1192 25.392 32.633 25.3366 33.471 25.2507L33.2671 23.2612C32.4966 23.3402 31.804 23.4085 31.2842 23.5407C30.7611 23.6738 30.1058 23.9457 29.8045 24.6633L31.6485 25.4376ZM32.7915 26.8694C32.2659 26.211 31.9456 25.8054 31.7683 25.5005C31.5926 25.1984 31.7201 25.2671 31.6485 25.4376L29.8045 24.6633C29.5032 25.381 29.768 26.0392 30.0393 26.5058C30.3089 26.9695 30.7452 27.5117 31.2284 28.1171L32.7915 26.8694ZM33.8219 28.1602L32.7915 26.8694L31.2284 28.1171L32.2588 29.4079L33.8219 28.1602ZM34.8072 30.1974C34.8303 29.7318 34.6666 29.3533 34.4823 29.0506C34.3127 28.7721 34.0677 28.4682 33.8219 28.1602L32.2588 29.4079C32.5375 29.7571 32.686 29.9462 32.774 30.0907C32.8473 30.211 32.8053 30.1858 32.8096 30.0981L34.8072 30.1974ZM33.6246 32.1268C33.8998 31.8447 34.1737 31.5667 34.3701 31.3063C34.5835 31.0234 34.784 30.663 34.8072 30.1974L32.8096 30.0981C32.814 30.0103 32.8583 29.9894 32.7735 30.1018C32.6716 30.2369 32.505 30.4103 32.193 30.7301L33.6246 32.1268ZM31.4392 34.3668L33.6246 32.1268L32.193 30.7301L30.0076 32.9701L31.4392 34.3668ZM29.4598 35.6315C29.9438 35.6073 30.3145 35.3918 30.6027 35.1644C30.8683 34.9548 31.1509 34.6623 31.4392 34.3668L30.0076 32.9701C29.6815 33.3044 29.5032 33.4843 29.3636 33.5945C29.2466 33.6869 29.2678 33.6386 29.3599 33.634L29.4598 35.6315ZM27.3641 34.5705C27.6804 34.8357 27.9908 35.0986 28.276 35.2807C28.5854 35.4783 28.9758 35.6557 29.4598 35.6315L29.3599 33.634C29.4521 33.6294 29.478 33.6753 29.3523 33.595C29.2024 33.4993 29.0071 33.3382 28.6493 33.038L27.3641 34.5705ZM26.2923 33.6716L27.3641 34.5705L28.6493 33.038L27.5775 32.1392L26.2923 33.6716ZM24.8387 32.4526C24.6613 32.525 24.5927 32.3891 24.9044 32.5807C25.2155 32.772 25.6276 33.1142 26.2923 33.6716L27.5775 32.1392C26.9649 31.6255 26.4191 31.1643 25.952 30.877C25.4853 30.5901 24.8182 30.3005 24.0823 30.6011L24.8387 32.4526ZM24.6545 34.3407C24.7387 33.4774 24.7934 32.9445 24.8815 32.59C24.9698 32.235 25.0161 32.3801 24.8387 32.4526L24.0823 30.6011C23.3464 30.9017 23.0729 31.5756 22.9407 32.1072C22.8083 32.6394 22.7416 33.3508 22.6639 34.1465L24.6545 34.3407ZM24.6592 34.2437V34.2436H22.6592V34.2437H24.6592ZM24.5047 35.8759L24.6545 34.3408L22.6639 34.1466L22.5142 35.6817L24.5047 35.8759ZM23.7699 38.0659C24.1226 37.7459 24.2734 37.3525 24.3542 37.0002C24.4286 36.6758 24.4654 36.2783 24.5047 35.8759L22.5142 35.6817C22.4697 36.1374 22.4437 36.3834 22.4048 36.5529C22.3723 36.6945 22.3592 36.6453 22.4261 36.5846L23.7699 38.0659ZM21.5189 38.5846C21.9232 38.5846 22.3224 38.5866 22.6525 38.544C23.0109 38.4978 23.4171 38.3859 23.7699 38.0659L22.4261 36.5846C22.4929 36.524 22.5407 36.5418 22.3965 36.5604C22.2241 36.5827 21.9767 36.5846 21.5189 36.5846V38.5846ZM18.481 38.5846H21.5189V36.5846H18.481V38.5846ZM16.23 38.0659C16.5827 38.3859 16.989 38.4978 17.3474 38.544C17.6774 38.5866 18.0767 38.5846 18.481 38.5846V36.5846C18.0231 36.5846 17.7757 36.5827 17.6033 36.5604C17.4592 36.5418 17.5069 36.524 17.5738 36.5846L16.23 38.0659ZM15.4951 35.8759C15.5344 36.2783 15.5712 36.6758 15.6457 37.0002C15.7265 37.3525 15.8772 37.7459 16.23 38.0659L17.5738 36.5846C17.6406 36.6453 17.6275 36.6945 17.595 36.5529C17.5561 36.3834 17.5301 36.1374 17.4857 35.6817L15.4951 35.8759ZM15.3454 34.3414L15.4951 35.8759L17.4857 35.6817L17.336 34.1472L15.3454 34.3414ZM15.1612 32.4532C14.9838 32.3808 15.0301 32.2357 15.1184 32.5907C15.2065 32.9452 15.2612 33.478 15.3454 34.3414L17.336 34.1472C17.2583 33.3515 17.1916 32.6401 17.0592 32.1079C16.927 31.5763 16.6535 30.9024 15.9176 30.6018L15.1612 32.4532ZM13.7076 33.6723C14.3723 33.1149 14.7844 32.7727 15.0955 32.5814C15.4072 32.3898 15.3386 32.5257 15.1612 32.4532L15.9176 30.6018C15.1817 30.3011 14.5146 30.5908 14.0479 30.8777C13.5808 31.1649 13.035 31.6261 12.4224 32.1399L13.7076 33.6723ZM12.6357 34.5712L13.7076 33.6723L12.4224 32.1399L11.3505 33.0388L12.6357 34.5712ZM10.54 35.6323C11.024 35.6565 11.4144 35.479 11.7238 35.2815C12.009 35.0994 12.3194 34.8365 12.6357 34.5712L11.3505 33.0388C10.9926 33.3389 10.7973 33.5001 10.6475 33.5958C10.5218 33.6761 10.5477 33.6302 10.6398 33.6348L10.54 35.6323ZM8.56059 34.3676C8.84888 34.663 9.13147 34.9556 9.39708 35.1652C9.68523 35.3926 10.056 35.6081 10.54 35.6323L10.6398 33.6348C10.732 33.6394 10.7532 33.6876 10.6362 33.5953C10.4966 33.4851 10.3183 33.3052 9.99215 32.9709L8.56059 34.3676ZM6.3752 32.1275L8.56059 34.3675L9.99215 32.9709L7.80677 30.7309L6.3752 32.1275ZM6.31486 32.0598L6.31487 32.0598L7.8671 30.7986L7.86709 30.7986L6.31486 32.0598ZM5.1926 30.1982C5.21576 30.6638 5.41624 31.0241 5.62971 31.3071C5.82611 31.5674 6.09999 31.8454 6.37519 32.1275L7.80676 30.7309C7.49476 30.4111 7.32822 30.2377 7.22632 30.1026C7.14148 29.9901 7.18577 30.0111 7.19013 30.0988L5.1926 30.1982ZM6.17792 28.161C5.93206 28.469 5.68712 28.7728 5.51752 29.0514C5.33318 29.3541 5.16944 29.7326 5.1926 30.1982L7.19013 30.0988C7.1945 30.1866 7.15251 30.2118 7.22577 30.0915C7.31377 29.947 7.46227 29.7579 7.741 29.4087L6.17792 28.161ZM7.20888 26.8694L6.17792 28.161L7.741 29.4087L8.77197 28.1171L7.20888 26.8694ZM8.35181 25.4376C8.28024 25.2671 8.4077 25.1985 8.23208 25.5005C8.05475 25.8055 7.73443 26.211 7.20888 26.8694L8.77197 28.1171C9.25518 27.5118 9.69143 26.9695 9.96105 26.5058C10.2324 26.0392 10.4972 25.381 10.1959 24.6634L8.35181 25.4376ZM6.5293 25.2508C7.36735 25.3367 7.88117 25.392 8.22306 25.479C8.56166 25.5652 8.42337 25.6081 8.35181 25.4376L10.1959 24.6634C9.89458 23.9458 9.23929 23.6739 8.71618 23.5408C8.19636 23.4085 7.50375 23.3402 6.73323 23.2612L6.5293 25.2508ZM5.02735 25.0969L6.5293 25.2508L6.73323 23.2612L5.23129 23.1073L5.02735 25.0969ZM2.84869 24.3554C3.16659 24.7076 3.55787 24.8594 3.90848 24.9416C4.23133 25.0172 4.62703 25.0558 5.02735 25.0969L5.23129 23.1073C4.77785 23.0608 4.53324 23.0338 4.36478 22.9943C4.22409 22.9613 4.27307 22.9486 4.33325 23.0152L2.84869 24.3554ZM2.33325 22.1125C2.33325 22.5149 2.33131 22.9125 2.37365 23.2414C2.41963 23.5985 2.53079 24.0033 2.84869 24.3554L4.33325 23.0152C4.39343 23.0819 4.37573 23.1293 4.35728 22.986C4.33519 22.8144 4.33325 22.5683 4.33325 22.1125H2.33325ZM2.33325 18.8901V22.1125H4.33325V18.8901H2.33325ZM2.84869 16.6472C2.53079 16.9993 2.41963 17.4041 2.37365 17.7612C2.33131 18.0901 2.33325 18.4877 2.33325 18.8901H4.33325C4.33325 18.4343 4.33519 18.1882 4.35728 18.0166C4.37573 17.8733 4.39343 17.9207 4.33325 17.9874L2.84869 16.6472ZM5.02735 15.9057C4.62703 15.9468 4.23133 15.9854 3.90849 16.061C3.55787 16.1432 3.16659 16.295 2.84869 16.6472L4.33325 17.9874C4.27307 18.054 4.22409 18.0413 4.36478 18.0083C4.53324 17.9688 4.77785 17.9418 5.23129 17.8953L5.02735 15.9057ZM6.52993 15.7517L5.02735 15.9057L5.23129 17.8953L6.73386 17.7413L6.52993 15.7517ZM8.35243 15.5649C8.424 15.3945 8.56229 15.4374 8.22369 15.5235C7.88179 15.6105 7.36797 15.6658 6.52993 15.7517L6.73386 17.7413C7.50438 17.6623 8.19698 17.594 8.7168 17.4618C9.23991 17.3287 9.89521 17.0568 10.1965 16.3392L8.35243 15.5649ZM7.20951 14.1331C7.73506 14.7915 8.05538 15.197 8.23271 15.502C8.40833 15.8041 8.28087 15.7354 8.35243 15.5649L10.1965 16.3392C10.4978 15.6215 10.233 14.9633 9.96167 14.4967C9.69206 14.033 9.2558 13.4907 8.7726 12.8854L7.20951 14.1331ZM6.17799 12.8408L7.20951 14.1331L8.7726 12.8854L7.74108 11.5931L6.17799 12.8408ZM5.19268 10.8037C5.16952 11.2693 5.33326 11.6477 5.5176 11.9505C5.6872 12.229 5.93213 12.5328 6.17799 12.8408L7.74108 11.5931C7.46235 11.244 7.31384 11.0549 7.22585 10.9103C7.15259 10.79 7.19457 10.8153 7.19021 10.903L5.19268 10.8037ZM6.37528 8.87432C6.10007 9.15641 5.82619 9.43441 5.62979 9.69475C5.41632 9.97771 5.21584 10.3381 5.19268 10.8037L7.19021 10.903C7.18584 10.9908 7.14156 11.0117 7.2264 10.8993C7.3283 10.7642 7.49484 10.5908 7.80684 10.271L6.37528 8.87432ZM8.56067 6.6343L6.37528 8.87432L7.80684 10.271L9.99223 8.03094L8.56067 6.6343ZM10.5401 5.36955C10.0561 5.39374 9.68531 5.60923 9.39715 5.83666C9.13155 6.0463 8.84896 6.3388 8.56067 6.6343L9.99223 8.03094C10.3184 7.69662 10.4966 7.51676 10.6362 7.40659C10.7533 7.31421 10.7321 7.36245 10.6399 7.36706L10.5401 5.36955ZM12.6357 6.43061C12.3194 6.16533 12.0091 5.90247 11.7239 5.72037C11.4145 5.5228 11.0241 5.34536 10.5401 5.36955L10.6399 7.36706C10.5478 7.37166 10.5219 7.32578 10.6475 7.40602C10.7974 7.50173 10.9927 7.66292 11.3506 7.96305L12.6357 6.43061ZM13.7076 7.32954L12.6357 6.43061L11.3506 7.96305L12.4225 8.86198L13.7076 7.32954ZM15.1613 8.54862C15.3387 8.47614 15.4072 8.61207 15.0956 8.42046C14.7845 8.22915 14.3723 7.88697 13.7076 7.32954L12.4225 8.86198C13.0351 9.37572 13.5809 9.83692 14.048 10.1242C14.5147 10.4111 15.1818 10.7007 15.9177 10.4001L15.1613 8.54862ZM15.3455 6.66042C15.2613 7.52381 15.2066 8.05669 15.1184 8.41112C15.0301 8.76614 14.9839 8.62109 15.1613 8.54862L15.9177 10.4001C16.6536 10.0994 16.927 9.42553 17.0593 8.89395C17.1917 8.36179 17.2584 7.65034 17.336 6.85462L15.3455 6.66042ZM15.4951 5.12667L15.3455 6.66042L17.336 6.85462L17.4857 5.32087L15.4951 5.12667ZM16.23 2.93669C15.8772 3.25668 15.7265 3.65015 15.6457 4.00238C15.5712 4.32676 15.5344 4.72429 15.4951 5.12667L17.4857 5.32087C17.5301 4.86519 17.5561 4.61918 17.595 4.4497C17.6275 4.30806 17.6406 4.35733 17.5738 4.41797L16.23 2.93669ZM18.481 2.41797C18.0767 2.41797 17.6774 2.41602 17.3474 2.45861C16.989 2.50485 16.5827 2.61669 16.23 2.93669L17.5738 4.41797C17.5069 4.47861 17.4592 4.46076 17.6033 4.44217C17.7757 4.41992 18.0231 4.41797 18.481 4.41797V2.41797ZM21.5189 2.41797H18.481V4.41797H21.5189V2.41797ZM23.7699 2.93669C23.4171 2.61669 23.0109 2.50485 22.6525 2.45861C22.3224 2.41602 21.9232 2.41797 21.5189 2.41797V4.41797C21.9767 4.41797 22.2241 4.41992 22.3965 4.44217C22.5407 4.46076 22.4929 4.47861 22.4261 4.41797L23.7699 2.93669ZM25.6666 20.5013C25.6666 23.7464 23.1064 26.3346 19.9999 26.3346V28.3346C24.2572 28.3346 27.6666 24.8041 27.6666 20.5013H25.6666ZM19.9999 14.668C23.1064 14.668 25.6666 17.2562 25.6666 20.5013H27.6666C27.6666 16.1985 24.2572 12.668 19.9999 12.668V14.668ZM14.3333 20.5013C14.3333 17.2562 16.8934 14.668 19.9999 14.668V12.668C15.7426 12.668 12.3333 16.1985 12.3333 20.5013H14.3333ZM19.9999 26.3346C16.8934 26.3346 14.3333 23.7464 14.3333 20.5013H12.3333C12.3333 24.8041 15.7426 28.3346 19.9999 28.3346V26.3346Z" fill="#E9E9E9"/>
</svg>
