<svg width="40" height="41" viewBox="0 0 40 41" fill="none" xmlns="http://www.w3.org/2000/svg">
<path d="M8.33325 21.7963C8.33325 19.4768 8.33325 18.3171 8.79069 17.2977C9.24812 16.2782 10.1072 15.5235 11.8253 14.014L13.492 12.5497C16.5975 9.82125 18.1503 8.45703 19.9999 8.45703C21.8495 8.45703 23.4023 9.82125 26.5078 12.5497L28.1745 14.014C29.8926 15.5235 30.7517 16.2782 31.2091 17.2977C31.6666 18.3171 31.6666 19.4768 31.6666 21.7963V29.0403C31.6666 32.2616 31.6666 33.8722 30.6903 34.873C29.714 35.8737 28.1426 35.8737 24.9999 35.8737H14.9999C11.8572 35.8737 10.2859 35.8737 9.30956 34.873C8.33325 33.8722 8.33325 32.2616 8.33325 29.0403V21.7963Z" stroke="#E9E9E9" stroke-width="2"/>
<path d="M24.1666 35.875V26.625C24.1666 26.0727 23.7189 25.625 23.1666 25.625H16.8333C16.281 25.625 15.8333 26.0727 15.8333 26.625V35.875" stroke="#E9E9E9" stroke-width="2" stroke-linecap="round" stroke-linejoin="round"/>
</svg>
