<svg width="40" height="41" viewBox="0 0 40 41" fill="none" xmlns="http://www.w3.org/2000/svg">
<path d="M20.4047 30.5515L19.9483 29.6618H19.9483L20.4047 30.5515ZM19.5951 30.5515L20.0516 29.6618H20.0516L19.5951 30.5515ZM30.6666 15.3763C30.6666 19.4596 28.5579 22.7497 26.1014 25.1976C23.6466 27.6437 20.9328 29.1568 19.9483 29.6618L20.8611 31.4413C21.9344 30.8908 24.8515 29.2666 27.5132 26.6143C30.1732 23.9636 32.6666 20.1939 32.6666 15.3763H30.6666ZM19.9999 4.41797C25.8678 4.41797 30.6666 9.30076 30.6666 15.3763H32.6666C32.6666 8.24303 27.0187 2.41797 19.9999 2.41797V4.41797ZM9.33325 15.3763C9.33325 9.30076 14.132 4.41797 19.9999 4.41797V2.41797C12.9812 2.41797 7.33325 8.24303 7.33325 15.3763H9.33325ZM20.0516 29.6618C19.067 29.1568 16.3532 27.6437 13.8984 25.1976C11.4419 22.7497 9.33325 19.4596 9.33325 15.3763H7.33325C7.33325 20.1939 9.82665 23.9636 12.4867 26.6143C15.1484 29.2666 18.0655 30.8908 19.1387 31.4413L20.0516 29.6618ZM19.9483 29.6618C19.9557 29.658 19.9741 29.6513 19.9999 29.6513C20.0258 29.6513 20.0442 29.658 20.0516 29.6618L19.1387 31.4413C19.6845 31.7213 20.3154 31.7213 20.8611 31.4413L19.9483 29.6618ZM23.9999 15.3763C23.9999 17.6779 22.1859 19.5013 19.9999 19.5013V21.5013C23.3368 21.5013 25.9999 18.7356 25.9999 15.3763H23.9999ZM19.9999 11.2513C22.1859 11.2513 23.9999 13.0747 23.9999 15.3763H25.9999C25.9999 12.017 23.3368 9.2513 19.9999 9.2513V11.2513ZM15.9999 15.3763C15.9999 13.0747 17.8139 11.2513 19.9999 11.2513V9.2513C16.6631 9.2513 13.9999 12.017 13.9999 15.3763H15.9999ZM19.9999 19.5013C17.8139 19.5013 15.9999 17.6779 15.9999 15.3763H13.9999C13.9999 18.7356 16.6631 21.5013 19.9999 21.5013V19.5013Z" fill="#E9E9E9"/>
<path d="M32.9904 29.8945C34.3069 30.6736 35 31.5574 35 32.457C35 33.3567 34.3069 34.2404 32.9904 35.0195C31.6739 35.7986 29.7803 36.4456 27.5 36.8954C25.2197 37.3452 22.6331 37.582 20 37.582C17.367 37.582 14.7803 37.3452 12.5 36.8954C10.2197 36.4456 8.32615 35.7986 7.00962 35.0195C5.69309 34.2404 5 33.3567 5 32.457C5 31.5574 5.69309 30.6736 7.00962 29.8945" stroke="#E9E9E9" stroke-width="2" stroke-linecap="round"/>
</svg>
