<svg width="40" height="40" viewBox="0 0 40 40" fill="none" xmlns="http://www.w3.org/2000/svg">
<path fill-rule="evenodd" clip-rule="evenodd" d="M23.0993 3.59058C23.385 3.84913 23.4278 4.27709 23.5133 5.13302L23.6566 6.56524C23.8199 8.19878 23.9016 9.01555 24.4544 9.24453C25.0072 9.47351 25.6425 8.95373 26.9131 7.91415L28.0271 7.00272C28.6929 6.458 29.0257 6.18565 29.4106 6.20484C29.7954 6.22404 30.0995 6.52816 30.7078 7.13642L32.8621 9.29077C33.4704 9.89902 33.7745 10.2032 33.7937 10.588C33.8129 10.9728 33.5406 11.3057 32.9958 11.9715L32.0844 13.0855C31.0448 14.3561 30.525 14.9914 30.754 15.5442C30.983 16.097 31.7997 16.1787 33.4333 16.342L34.8656 16.4853C35.7215 16.5709 36.1495 16.6137 36.408 16.8993C36.6666 17.185 36.6666 17.6151 36.6666 18.4753V21.5221C36.6666 22.3823 36.6666 22.8124 36.408 23.098C36.1495 23.3837 35.7215 23.4265 34.8656 23.5121L33.4339 23.6553C31.8004 23.8187 30.9836 23.9003 30.7546 24.4531C30.5256 25.006 31.0454 25.6413 32.085 26.9118L32.9959 28.0252C33.5406 28.691 33.813 29.0238 33.7938 29.4087C33.7746 29.7935 33.4705 30.0976 32.8622 30.7059L30.7079 32.8602C30.0996 33.4685 29.7955 33.7726 29.4106 33.7918C29.0258 33.811 28.6929 33.5387 28.0272 32.9939L26.9132 32.0825C25.6426 31.0429 25.0073 30.5231 24.4545 30.7521C23.9017 30.9811 23.82 31.7979 23.6566 33.4314L23.5133 34.8644C23.4278 35.7203 23.385 36.1483 23.0993 36.4068C22.8136 36.6654 22.3835 36.6654 21.5233 36.6654H18.4766C17.6164 36.6654 17.1863 36.6654 16.9006 36.4068C16.6149 36.1483 16.5721 35.7203 16.4865 34.8644L16.3433 33.4321C16.1799 31.7985 16.0982 30.9818 15.5454 30.7528C14.9926 30.5238 14.3573 31.0436 13.0867 32.0832L11.9726 32.9947C11.3068 33.5394 10.974 33.8118 10.5891 33.7926C10.2043 33.7734 9.90017 33.4692 9.29191 32.861L7.13756 30.7066C6.52931 30.0984 6.22518 29.7943 6.20599 29.4094C6.18679 29.0246 6.45915 28.6917 7.00386 28.026L7.91536 26.9119C8.95493 25.6413 9.47472 25.006 9.24574 24.4532C9.01676 23.9004 8.19999 23.8187 6.56645 23.6553L5.13425 23.5121C4.27831 23.4265 3.85035 23.3837 3.5918 23.098C3.33325 22.8124 3.33325 22.3823 3.33325 21.5221V18.4753C3.33325 17.6151 3.33325 17.185 3.5918 16.8993C3.85035 16.6137 4.27831 16.5709 5.13424 16.4853L6.56708 16.342C8.20061 16.1786 9.01738 16.097 9.24637 15.5441C9.47535 14.9913 8.95556 14.356 7.91598 13.0854L7.00394 11.9707C6.45922 11.3049 6.18687 10.9721 6.20606 10.5872C6.22526 10.2024 6.52938 9.89827 7.13764 9.29002L9.29199 7.13566C9.90024 6.52741 10.2044 6.22328 10.5892 6.20409C10.974 6.18489 11.3069 6.45725 11.9727 7.00196L13.0868 7.9135C14.3574 8.95307 14.9927 9.47286 15.5455 9.24388C16.0983 9.0149 16.18 8.19813 16.3433 6.56459L16.4865 5.13303C16.5721 4.27709 16.6149 3.84913 16.9006 3.59058C17.1863 3.33203 17.6164 3.33203 18.4766 3.33203H21.5233C22.3835 3.33203 22.8136 3.33203 23.0993 3.59058ZM19.9999 26.6654C23.6818 26.6654 26.6666 23.6806 26.6666 19.9987C26.6666 16.3168 23.6818 13.332 19.9999 13.332C16.318 13.332 13.3333 16.3168 13.3333 19.9987C13.3333 23.6806 16.318 26.6654 19.9999 26.6654Z" fill="#E9E9E9"/>
</svg>
