<svg width="40" height="40" viewBox="0 0 40 40" fill="none" xmlns="http://www.w3.org/2000/svg">
<path fill-rule="evenodd" clip-rule="evenodd" d="M3.33325 19.9987C3.33325 10.794 10.7952 3.33203 19.9999 3.33203C29.2047 3.33203 36.6666 10.794 36.6666 19.9987C36.6666 25.277 34.2129 29.9822 30.3839 33.036C29.6792 31.0197 28.4002 29.2459 26.6963 27.9385C24.7752 26.4644 22.4214 25.6654 19.9999 25.6654C17.5784 25.6654 15.2246 26.4644 13.3035 27.9385C11.5996 29.2459 10.3206 31.0197 9.6159 33.036C5.78693 29.9822 3.33325 25.277 3.33325 19.9987ZM25.4788 29.5252C27.0236 30.7106 28.1416 32.3645 28.6663 34.2378C26.1411 35.778 23.1742 36.6654 19.9999 36.6654C16.8257 36.6654 13.8587 35.778 11.3335 34.2378C11.8582 32.3645 12.9762 30.7106 14.5211 29.5252C16.0929 28.3191 18.0187 27.6654 19.9999 27.6654C21.9811 27.6654 23.907 28.3191 25.4788 29.5252ZM15.9999 14.9987C15.9999 12.7896 17.7908 10.9987 19.9999 10.9987C22.2091 10.9987 23.9999 12.7896 23.9999 14.9987C23.9999 17.2078 22.2091 18.9987 19.9999 18.9987C17.7908 18.9987 15.9999 17.2078 15.9999 14.9987ZM19.9999 8.9987C16.6862 8.9987 13.9999 11.685 13.9999 14.9987C13.9999 18.3124 16.6862 20.9987 19.9999 20.9987C23.3136 20.9987 25.9999 18.3124 25.9999 14.9987C25.9999 11.685 23.3136 8.9987 19.9999 8.9987Z" fill="#E9E9E9"/>
<rect x="3.83325" y="3.83203" width="32.3333" height="32.3333" rx="16.1667" stroke="#E9E9E9"/>
</svg>
